<?xml version="1.0" encoding="utf-8"?>
<!-- Generator: Adobe Illustrator 22.0.1, SVG Export Plug-In . SVG Version: 6.00 Build 0)  -->
<svg version="1.1" id="Layer_1" xmlns="http://www.w3.org/2000/svg" xmlns:xlink="http://www.w3.org/1999/xlink" x="0px" y="0px"
	 viewBox="0 0 104.2 104.7" style="enable-background:new 0 0 104.2 104.7;" xml:space="preserve">
<style type="text/css">
	.st0{fill:#E6E7E8;stroke:#000000;stroke-miterlimit:10;}
	.st1{fill:#E6E7E8;stroke:#000000;stroke-width:0.5;stroke-miterlimit:10;}
	.st2{fill:none;stroke:#231F20;stroke-width:0.75;stroke-linecap:round;stroke-miterlimit:10;}
	.st3{fill:#FFE51F;}
	.st4{fill:#FF0A94;}
	.st5{fill:#50C1FF;}
	.st6{fill:none;}
	.st7{fill:#E6E7E8;}
</style>
<polygon class="st0" points="52.1,1.8 8.1,27.3 8.1,78.1 52.1,103.5 96.1,78.1 96.1,27.3 "/>
<polygon class="st1" points="52.1,3.7 9.7,28.2 9.7,77.2 52.1,101.7 94.6,77.2 94.6,28.2 "/>
<g>
	<line class="st2" x1="14.4" y1="48.4" x2="83.8" y2="25.3"/>
	<line class="st2" x1="14.4" y1="48.4" x2="83.8" y2="25.3"/>
	<line class="st2" x1="83.6" y1="43.4" x2="14.8" y2="30.4"/>
	<line class="st2" x1="61.3" y1="60.8" x2="37.1" y2="12.9"/>
	<line class="st2" x1="30.3" y1="61.1" x2="68" y2="12.7"/>
</g>
<polyline class="st2" points="81.1,63 77,42.2 77.7,27.3 66.1,15 38.9,16.7 20.6,31.4 22.7,45.7 36,53.9 57,52.4 71.7,41.2 
	71.7,29.3 63.4,18.5 40.6,20 27.5,32.9 30.2,43.2 41.6,46.8 54,46.8 63.6,39.7 65.7,30.5 58.6,24.6 43.7,26.2 34.5,34.1 37.2,41 
	45.2,42.2 51.6,41.5 57.2,38.5 60.9,33.1 55.5,28.7 46.2,31.2 42,35.6 44.7,38.5 47.9,38.7 "/>
<g>
	<polygon points="83.6,55.3 86.7,49.3 91.9,47.8 87.7,50.1 85.3,55.7 	"/>
	<polygon points="84.6,56.7 90.7,53.4 95.6,55.1 90.8,54.7 85.8,57.8 	"/>
	<polygon points="77.7,56.9 71.7,53.9 66.7,55.7 71.5,55.1 76.7,58 	"/>
	<polygon points="77.1,58.6 70.4,59.4 67.4,63.5 71.1,60.5 77,60.3 	"/>
	<g>
		<ellipse transform="matrix(0.9701 -0.2428 0.2428 0.9701 -11.8555 21.5027)" cx="81.3" cy="58.9" rx="6.4" ry="5.2"/>
		<circle class="st3" cx="78.2" cy="58.8" r="1.9"/>
		<circle class="st3" cx="83.8" cy="56.7" r="1.9"/>
		<circle cx="83.8" cy="57.6" r="0.7"/>
		<circle cx="78.8" cy="59.4" r="0.7"/>
	</g>
</g>
<circle class="st4" cx="64.5" cy="31" r="2.9"/>
<circle class="st5" cx="40.6" cy="20.6" r="3.5"/>
<circle class="st3" cx="43" cy="38.8" r="2.5"/>
<g>
	<path class="st6" d="M75.1,77.1c0.7-0.6,0.9-1.2,0.9-2.1c0-0.4-0.1-0.7-0.2-1.1s-0.3-0.7-0.5-1c-0.2-0.4-0.4-0.6-0.7-0.7
		c-0.3-0.2-0.6-0.3-0.8-0.3c-0.5,0-0.9,0.2-1.3,0.5s-0.7,0.7-0.9,1l-0.2,0.2v4.3c0.4,0.1,0.7,0.1,1,0.1
		C73.7,77.8,74.4,77.5,75.1,77.1z"/>
	<path class="st6" d="M33.7,78.2c0.3,0.3,0.7,0.4,1.1,0.4c0.5,0,0.8-0.1,1.2-0.4s0.7-0.6,0.9-1c0.3-0.4,0.5-0.8,0.6-1.3
		s0.2-0.8,0.2-1.2c0-0.4,0-0.7-0.1-1c-0.1-0.4-0.2-0.7-0.4-0.9c-0.2-0.3-0.4-0.5-0.6-0.7c-0.2-0.2-0.5-0.3-0.7-0.3
		c-0.4,0-0.7,0.1-1,0.3c-0.3,0.2-0.7,0.5-0.8,0.7c-0.3,0.3-0.5,0.6-0.7,0.9c-0.2,0.4-0.3,0.7-0.4,1c-0.1,0.5-0.1,0.8-0.1,1.3
		s0.1,0.8,0.2,1.2C33.2,77.6,33.4,77.9,33.7,78.2z"/>
	<path d="M19.2,81.6c0.4,0,0.9,0,1.4,0l0,0v-8.9h0.6c0.4,0,0.7,0,1,0c0.4,0,0.7,0,0.9-0.1c0.3-0.1,0.6-0.2,0.7-0.4
		c0.2-0.2,0.3-0.4,0.3-0.7c0-0.2-0.1-0.4-0.2-0.6c-0.2-0.2-0.4-0.4-0.7-0.5l-2.6,0.1V68c0.2-1,0.7-1.6,1.3-1.6c0.2,0,0.4,0,0.6,0.1
		s0.4,0.2,0.6,0.2l0,0c0.2,0.1,0.4,0.2,0.6,0.2c0.2,0.1,0.4,0.1,0.6,0.1c0.3,0,0.6-0.1,0.7-0.3c0.2-0.2,0.3-0.4,0.3-0.7
		s-0.1-0.6-0.4-0.7c-0.3-0.2-0.6-0.4-0.9-0.6c-0.4-0.2-0.7-0.3-1-0.3s-0.7-0.1-0.9-0.1c-0.6,0-1,0.1-1.4,0.3
		c-0.5,0.2-0.8,0.5-1.1,0.7c-0.3,0.4-0.6,0.7-0.7,1.2c-0.2,0.5-0.3,0.9-0.3,1.5v2.4h-0.2c-0.5,0-0.7,0.1-0.9,0.4
		c-0.2,0.2-0.3,0.5-0.3,0.7c0,0.3,0.1,0.5,0.3,0.7c0.2,0.2,0.5,0.3,0.8,0.4h0.3v8.9c0,0.1,0,0.1,0,0.1C18.4,80,18.8,81.6,19.2,81.6z
		"/>
	<path d="M19.5,82.8c0.3,0,0.6-0.1,0.7-0.3c0.2-0.2,0.4-0.5,0.4-0.8c-0.6,0-1,0-1.4,0s-0.8-1.7-0.7,0.2c0.1,0.3,0.2,0.5,0.4,0.7
		C19.1,82.8,19.2,82.8,19.5,82.8z"/>
	<path d="M26.5,79.8l1,0.7c0.2,0.1,0.5,0.2,0.7,0.2s0.4-0.1,0.6-0.2s0.3-0.2,0.4-0.4c0.1-0.2,0.1-0.3,0.1-0.5c0-0.3-0.2-0.7-0.7-0.9
		c0,0-0.1,0-0.1-0.1s-0.1-0.1-0.1-0.1V66.3c-0.1-0.3-0.3-0.5-0.5-0.7s-0.5-0.3-0.7-0.3s-0.5,0.1-0.7,0.3c-0.2,0.2-0.4,0.4-0.4,0.7
		V79c0,0.2,0.1,0.4,0.1,0.5S26.4,79.7,26.5,79.8z"/>
	<path d="M31.7,79.1c0.4,0.5,0.7,0.8,1.3,1.1c0.6,0.3,1.1,0.4,1.7,0.4s1.2-0.1,1.7-0.4c0.6-0.2,1-0.6,1.5-0.9
		c0.5-0.4,0.8-0.9,1.1-1.4s0.6-1.1,0.7-1.8c0-0.2,0.1-0.5,0.1-0.7s0-0.5,0-0.7c0-0.6-0.1-1.2-0.3-1.8c-0.2-0.6-0.5-1.1-0.7-1.6
		c-0.3-0.5-0.7-0.8-1.3-1.1c-0.5-0.3-1.1-0.4-1.7-0.4c-0.7,0-1.4,0.2-2.1,0.6c-0.7,0.4-1.2,0.8-1.7,1.4c-0.5,0.6-0.8,1.2-1.1,2
		c-0.3,0.7-0.5,1.5-0.5,2.2c0,0.6,0.1,1.1,0.3,1.7C31.1,78.2,31.4,78.7,31.7,79.1z M33,74.8c0.1-0.3,0.2-0.7,0.4-1
		c0.2-0.4,0.4-0.7,0.7-0.9c0.3-0.3,0.6-0.6,0.8-0.7s0.7-0.3,1-0.3s0.6,0.1,0.7,0.3c0.2,0.2,0.5,0.4,0.6,0.7c0.1,0.3,0.3,0.6,0.4,0.9
		c0.1,0.4,0.1,0.7,0.1,1c0,0.4-0.1,0.7-0.2,1.2c-0.1,0.5-0.4,0.8-0.6,1.3c-0.3,0.4-0.6,0.7-0.9,1c-0.4,0.3-0.7,0.4-1.2,0.4
		s-0.8-0.1-1.1-0.4s-0.5-0.6-0.7-0.9c-0.1-0.5-0.1-0.9-0.1-1.3C33,75.7,33,75.2,33,74.8z"/>
	<path d="M41.9,72.7c0.2,0.7,0.4,1.4,0.7,2.2c0.2,0.7,0.5,1.5,0.7,2.2c0.3,0.7,0.6,1.5,0.8,2.2c0.3,0.5,0.7,0.7,1.1,0.7
		c0.4,0,0.7-0.2,0.9-0.5c0.2-0.5,0.4-0.9,0.6-1.3c0.2-0.4,0.4-0.8,0.5-1.3c0.2-0.5,0.4-0.9,0.6-1.4c0.2-0.5,0.4-0.9,0.6-1.4l0,0v0.1
		c0,0,0,0.1,0.1,0.1c0.4,0.8,0.7,1.8,1,2.6c0.4,0.8,0.7,1.7,1.1,2.5c0.3,0.3,0.7,0.5,0.9,0.5c0.4,0,0.7-0.2,0.9-0.5
		c0.6-1.3,1.1-2.5,1.5-3.7s0.8-2.5,1.2-3.8l0.4-1.1c0-0.4-0.1-0.7-0.3-0.9c-0.2-0.2-0.5-0.3-0.8-0.3c-0.2,0-0.4,0.1-0.6,0.2
		s-0.4,0.3-0.5,0.5l0,0L53,71.4c-0.3,0.8-0.6,1.7-0.7,2.6c-0.3,0.8-0.6,1.7-0.7,2.3c-0.4-0.8-0.7-1.8-1.1-2.6
		c-0.3-0.8-0.7-1.8-0.9-2.7c-0.1-0.3-0.2-0.5-0.5-0.7c-0.2-0.2-0.5-0.2-0.7-0.2s-0.4,0-0.6,0.1s-0.4,0.3-0.5,0.5l-1.4,3.5
		c-0.1,0.3-0.3,0.7-0.4,0.9c-0.1,0.3-0.3,0.6-0.4,0.9c-0.3-0.9-0.6-1.8-0.8-2.7c-0.2-0.9-0.5-1.9-0.6-2.9c-0.1-0.3-0.3-0.6-0.5-0.7
		s-0.5-0.2-0.7-0.2c-0.3,0-0.6,0.1-0.8,0.4c-0.3,0.3-0.4,0.6-0.3,0.9C41.6,71.5,41.8,72,41.9,72.7z"/>
	<path d="M57.3,78.2c0.3,0.3,0.7,0.7,1,0.9c0.4,0.3,0.8,0.6,1.3,0.7c0.5,0.2,1,0.4,1.5,0.5c0.6,0.1,1,0.2,1.6,0.1
		c0.6,0,1.2-0.1,1.8-0.3c0.6-0.2,1-0.5,1.5-0.7c0.5-0.3,0.7-0.7,1-1.3s0.4-1.1,0.4-1.8c0-0.7-0.2-1.3-0.5-1.9s-0.7-1-1.3-1.3
		c-0.7-0.4-1.3-0.7-1.8-0.7c-0.6-0.2-1.1-0.3-1.8-0.5c0,0-0.1,0-0.4-0.1c-0.3-0.1-0.6-0.2-0.8-0.3c-0.3-0.1-0.6-0.3-0.8-0.6
		c-0.3-0.2-0.4-0.5-0.3-0.7c0-0.4,0.2-0.7,0.4-0.9c0.2-0.3,0.5-0.5,0.7-0.6c0.3-0.2,0.6-0.3,0.9-0.3c0.4-0.1,0.7-0.1,1-0.1
		c0.5,0,0.8,0.1,1.2,0.2c0.4,0.1,0.8,0.2,1.2,0.4c0.2,0.1,0.4,0.1,0.6,0c0.2,0,0.3-0.1,0.5-0.2c0.2-0.1,0.2-0.2,0.3-0.4
		c0.1-0.2,0.1-0.3,0.1-0.4c0-0.2-0.1-0.4-0.2-0.5s-0.3-0.3-0.5-0.5c-0.4-0.2-0.8-0.4-1.2-0.5c-0.5-0.1-0.9-0.2-1.5-0.2
		c-0.7,0-1.3,0.1-2,0.2s-1.3,0.4-1.9,0.7s-1,0.7-1.4,1.2c-0.4,0.6-0.6,1.1-0.6,1.9c0,0.6,0.1,1,0.3,1.5c0.2,0.4,0.6,0.7,0.9,1
		c0.4,0.3,0.8,0.5,1.3,0.7s1,0.3,1.5,0.4c0.3,0,0.7,0.1,1.1,0.2c0.4,0.1,0.8,0.2,1.1,0.4c0.3,0.2,0.7,0.5,0.9,0.7
		c0.3,0.4,0.4,0.7,0.4,1.3s-0.2,0.9-0.6,1.3c-0.4,0.4-0.9,0.6-1.8,0.6c-0.7,0-1.4-0.1-2-0.4s-1.1-0.6-1.7-1.1
		c-0.2-0.1-0.3-0.2-0.5-0.3c-0.2-0.1-0.3-0.1-0.5-0.1c-0.3,0-0.6,0.1-0.7,0.3c-0.2,0.2-0.3,0.4-0.3,0.7
		C57.1,77.7,57.2,77.9,57.3,78.2L57.3,78.2z"/>
	<path d="M71.7,79.6c0.2,0,0.4,0,0.5,0c0.2,0,0.4,0,0.6,0c0.9,0,1.8-0.1,2.4-0.4c0.7-0.3,1.3-0.6,1.8-1c0.5-0.5,0.8-0.9,1.1-1.6
		s0.4-1.3,0.4-2.1c0-0.7-0.1-1.3-0.4-1.9c-0.2-0.6-0.6-1.1-0.9-1.6c-0.4-0.5-0.8-0.8-1.4-1c-0.6-0.3-1.1-0.4-1.8-0.4
		c-0.4,0-0.8,0.1-1.2,0.2c-0.4,0.1-0.7,0.3-1.1,0.5c-0.1-0.3-0.3-0.5-0.5-0.6s-0.5-0.2-0.7-0.2c-0.3,0-0.5,0.1-0.7,0.3
		c-0.3,0.2-0.4,0.4-0.5,0.7v11.2c0.7,0,1.6,0,2.3,0L71.7,79.6L71.7,79.6z M71.7,73.2l0.2-0.2c0.3-0.4,0.6-0.7,0.9-1
		c0.4-0.3,0.7-0.5,1.3-0.5c0.3,0,0.6,0.1,0.8,0.3c0.3,0.2,0.5,0.5,0.7,0.7c0.2,0.3,0.4,0.7,0.5,1c0.1,0.4,0.2,0.7,0.2,1.1
		c0,0.9-0.3,1.7-0.9,2.1c-0.7,0.6-1.5,0.7-2.4,0.7c-0.4,0-0.7,0-1-0.1V73h-0.3C71.7,73,71.7,73.2,71.7,73.2z"/>
	<path d="M89.4,69.7c-0.2-0.2-0.5-0.3-0.7-0.3c-0.5,0-0.8,0.2-1,0.7l0,0c-0.3,1.1-0.7,2.1-1,3.1c-0.4,0.9-0.8,1.9-1.3,2.8
		c-0.8-0.7-1.6-1.6-2.1-2.4s-1-2-1.3-3.2c-0.1-0.3-0.3-0.6-0.5-0.7s-0.5-0.2-0.7-0.2c-0.7,0-1.1,0.5-1.1,1.3
		c0.2,0.7,0.5,1.5,0.7,2.1c0.3,0.7,0.7,1.3,1,1.9c0.4,0.6,0.8,1.1,1.3,1.6s1,1,1.7,1.5L83,80.4c-0.3,0.5-0.6,0.9-0.8,1.4l0,0
		c1.2,0,1.3,2.2,1.3,2.2c0.3-0.5,2.4-4.4,2.9-5.2c0.5-0.8,0.9-1.8,1.4-2.7c0.5-0.9,0.8-1.8,1.2-2.7c0.4-0.9,0.7-1.9,0.9-2.8
		C89.7,70.2,89.6,69.9,89.4,69.7z"/>
	<line class="st6" x1="69.5" y1="81.7" x2="71.7" y2="81.7"/>
	<g>
		<path d="M82.1,81.8c-2.5,0-5.7-0.1-9.4-0.1c-0.3,0-0.6,0-1,0h-2.2c-0.3,0-0.7,0-1,0c-16.7-0.1-39.8-0.1-47.8-0.1
			c0,0.4-0.1,0.7-0.4,0.8c-0.2,0.2-0.5,0.3-0.7,0.3s-0.5-0.1-0.7-0.3c-0.2-0.2-0.3-0.4-0.4-0.7v0.2c0.1,2.1,20.2,10.7,33.7,10.7
			c11.6,0,22.4-2.9,30.2-7.8l1-0.8l0.4-0.7l-1-1.6L82.1,81.8"/>
	</g>
</g>
<circle class="st7" cx="40.9" cy="90.8" r="2.8"/>
<circle class="st7" cx="45.7" cy="91.1" r="3.9"/>
<circle class="st7" cx="49.6" cy="93.5" r="4.2"/>
</svg>
