<?xml version="1.0" encoding="utf-8"?>
<!-- Generator: Adobe Illustrator 22.0.1, SVG Export Plug-In . SVG Version: 6.00 Build 0)  -->
<svg version="1.1" id="Layer_1" xmlns="http://www.w3.org/2000/svg" xmlns:xlink="http://www.w3.org/1999/xlink" x="0px" y="0px"
	 viewBox="0 0 104.2 104.7" style="enable-background:new 0 0 104.2 104.7;" xml:space="preserve">
<style type="text/css">
	.st0{fill:#E6E7E8;stroke:#000000;stroke-miterlimit:10;}
	.st1{fill:#E6E7E8;stroke:#000000;stroke-width:0.5;stroke-miterlimit:10;}
	.st2{fill:none;stroke:#231F20;stroke-width:0.75;stroke-linecap:round;stroke-miterlimit:10;}
	.st3{fill:#FFE51F;}
	.st4{fill:#FF0A94;}
	.st5{fill:#50C1FF;}
	.st6{fill:#E6E7E8;}
	.st7{font-family:'Courier-Bold';}
	.st8{font-size:14.6181px;}
</style>
<polygon class="st0" points="52.1,1.8 8.1,27.3 8.1,78.1 52.1,103.5 96.1,78.1 96.1,27.3 "/>
<polygon class="st1" points="52.1,3.7 9.7,28.2 9.7,77.2 52.1,101.7 94.6,77.2 94.6,28.2 "/>
<g>
	<line class="st2" x1="17.3" y1="35.4" x2="51.9" y2="23.5"/>
	<line class="st2" x1="86.5" y1="30.4" x2="51.9" y2="23.5"/>
	<line class="st2" x1="64.2" y1="47.8" x2="51.9" y2="23.5"/>
	<line class="st2" x1="33.2" y1="48.1" x2="51.9" y2="23.5"/>
	<line class="st2" x1="42.5" y1="35.8" x2="48.9" y2="52.3"/>
	<line class="st2" x1="59.1" y1="37.8" x2="77.4" y2="37.9"/>
	<line class="st2" x1="46.4" y1="45.9" x2="34.6" y2="62.7"/>
	<line class="st2" x1="64.2" y1="47.8" x2="58" y2="60.8"/>
	<line class="st2" x1="76.9" y1="51.1" x2="64.2" y2="47.8"/>
</g>
<g>
	<g>
		<ellipse transform="matrix(0.9996 -2.810564e-02 2.810564e-02 0.9996 -0.5608 1.4505)" cx="51.3" cy="20.7" rx="7.3" ry="5.9"/>
		<circle class="st3" cx="47.9" cy="19.8" r="2.2"/>
		<circle class="st3" cx="54.6" cy="18.8" r="2.2"/>
		<circle cx="54.4" cy="19.8" r="0.8"/>
		<circle cx="48.4" cy="20.6" r="0.8"/>
	</g>
</g>
<circle class="st4" cx="34.2" cy="63" r="2.9"/>
<circle class="st4" cx="76.5" cy="38.5" r="2.4"/>
<circle class="st5" cx="18.2" cy="35" r="3.5"/>
<circle class="st5" cx="33.2" cy="47.8" r="2"/>
<circle class="st5" cx="58" cy="60.5" r="2"/>
<circle class="st3" cx="77.2" cy="51.1" r="2.5"/>
<circle class="st3" cx="87.5" cy="30.4" r="3.5"/>
<circle class="st3" cx="48.6" cy="51.7" r="2.1"/>
<circle class="st6" cx="40.9" cy="90.8" r="2.8"/>
<circle class="st6" cx="45.7" cy="91.1" r="3.9"/>
<circle class="st6" cx="49.6" cy="93.5" r="4.2"/>
<text transform="matrix(1 0 0 1 17.3731 79.4482)" class="st7 st8">CytoTree</text>
</svg>
